<?xml version="1.0" encoding="utf-8"?>
<!-- Generator: Adobe Illustrator 16.0.0, SVG Export Plug-In . SVG Version: 6.00 Build 0)  -->
<!DOCTYPE svg PUBLIC "-//W3C//DTD SVG 1.0//EN" "http://www.w3.org/TR/2001/REC-SVG-20010904/DTD/svg10.dtd">
<svg version="1.0" id="Calque_1" xmlns="http://www.w3.org/2000/svg" xmlns:xlink="http://www.w3.org/1999/xlink" x="0px" y="0px"
	 width="71px" height="71px" viewBox="0 0 71 71" enable-background="new 0 0 71 71" xml:space="preserve">
<g id="chapeau_chef">
	<g>
		<path fill="#FFFFFF" d="M55.315,44.183c-0.51,0-1.022-0.026-1.536-0.081c-0.549-0.058-0.948-0.55-0.89-1.099
			c0.058-0.55,0.559-0.954,1.099-0.89c3.618,0.374,7.17-0.813,9.999-3.359c3.026-2.726,4.763-6.554,4.763-10.504
			c0-2.01-0.687-12.036-14.232-12.036c-0.39,0-0.744-0.227-0.908-0.581C49.66,7.086,44.78,3.599,36.768,3.599
			c-4.501,0-9.018,2.204-12.392,6.048c-3.263,3.716-4.895,8.355-4.366,12.411c0.071,0.548-0.314,1.049-0.862,1.121
			c-0.54,0.071-1.049-0.314-1.121-0.862c-0.603-4.618,1.209-9.848,4.846-13.99c3.754-4.276,8.819-6.728,13.895-6.728
			c10.743,0,15.369,6.286,18.389,12.623c11.493,0.265,15.594,7.67,15.594,14.028c0,4.516-1.978,8.886-5.425,11.99
			C62.47,42.812,58.962,44.183,55.315,44.183z"/>
	</g>
	<g>
		<path fill="#FFFFFF" d="M54.775,70.597c-0.087,0-0.174-0.001-0.264-0.001c-11.773-0.063-23.714-0.063-35.488,0
			c-2.71,0.007-4.365-0.184-5.336-1.266c-0.929-1.035-0.895-2.605-0.719-4.147c0.558-4.906,1.16-9.807,1.761-14.709l0.76-6.219
			c0.067-0.549,0.576-0.938,1.113-0.873c0.548,0.066,0.939,0.565,0.873,1.113l-0.76,6.223c-0.601,4.896-1.202,9.791-1.759,14.691
			c-0.161,1.416-0.091,2.237,0.22,2.585c0.489,0.545,2.12,0.615,3.837,0.602c11.781-0.063,23.729-0.063,35.51,0
			c1.713,0.024,3.35-0.057,3.838-0.603c0.312-0.347,0.382-1.168,0.221-2.584c-0.563-4.953-1.182-9.985-1.779-14.853l-0.741-6.062
			c-0.066-0.548,0.324-1.046,0.873-1.113c0.551-0.064,1.047,0.324,1.113,0.873l0.74,6.058c0.599,4.872,1.217,9.909,1.78,14.87
			c0.176,1.542,0.21,3.111-0.719,4.146C58.908,70.377,57.33,70.597,54.775,70.597z"/>
	</g>
	<g>
		<path fill="#FFFFFF" d="M15.318,44.111c-3.513,0-6.68-1.569-9.704-4.753c-4.178-4.4-5.336-11.44-2.692-16.375
			c3.306-6.172,8.696-8.985,15.584-8.127c0.548,0.068,0.938,0.567,0.869,1.115c-0.068,0.548-0.57,0.934-1.115,0.869
			c-6.005-0.743-10.694,1.707-13.576,7.087c-2.254,4.209-1.231,10.25,2.379,14.054c4.05,4.265,8.203,5.172,13.464,2.937
			c0.507-0.214,1.095,0.022,1.311,0.53s-0.021,1.096-0.53,1.312C19.192,43.658,17.205,44.111,15.318,44.111z"/>
	</g>
	<g>
		<path fill="#FFFFFF" d="M43.741,59.321H16.482c-0.552,0-1-0.447-1-1s0.448-1,1-1h27.259c0.553,0,1,0.447,1,1
			S44.294,59.321,43.741,59.321z"/>
	</g>
	<g>
		<path fill="#FFFFFF" d="M43.74,13.044c-0.15,0-0.303-0.034-0.446-0.105l-6.34-3.169c-0.494-0.247-0.694-0.848-0.447-1.342
			c0.246-0.494,0.848-0.694,1.342-0.447l6.34,3.169c0.494,0.247,0.694,0.848,0.447,1.342C44.46,12.842,44.107,13.044,43.74,13.044z"
			/>
	</g>
	<g>
		<path fill="#FFFFFF" d="M23,68c-0.552,0-1-0.447-1-1v-6c0-0.553,0.448-1,1-1s1,0.447,1,1v6C24,67.553,23.552,68,23,68z"/>
	</g>
	<g>
		<path fill="#FFFFFF" d="M30,68c-0.553,0-1-0.447-1-1v-6c0-0.553,0.447-1,1-1s1,0.447,1,1v6C31,67.553,30.553,68,30,68z"/>
	</g>
	<g>
		<path fill="#FFFFFF" d="M37,68c-0.553,0-1-0.447-1-1v-6c0-0.553,0.447-1,1-1s1,0.447,1,1v6C38,67.553,37.553,68,37,68z"/>
	</g>
	<g>
		<path fill="#FFFFFF" d="M44,68c-0.553,0-1-0.447-1-1v-6c0-0.553,0.447-1,1-1s1,0.447,1,1v6C45,67.553,44.553,68,44,68z"/>
	</g>
	<g>
		<path fill="#FFFFFF" d="M51,68c-0.553,0-1-0.447-1-1v-6c0-0.553,0.447-1,1-1s1,0.447,1,1v6C52,67.553,51.553,68,51,68z"/>
	</g>
</g>
</svg>
