<?xml version="1.0" encoding="utf-8"?>
<!-- Generator: Adobe Illustrator 16.0.0, SVG Export Plug-In . SVG Version: 6.00 Build 0)  -->
<!DOCTYPE svg PUBLIC "-//W3C//DTD SVG 1.0//EN" "http://www.w3.org/TR/2001/REC-SVG-20010904/DTD/svg10.dtd">
<svg version="1.0" id="Calque_1" xmlns="http://www.w3.org/2000/svg" xmlns:xlink="http://www.w3.org/1999/xlink" x="0px" y="0px"
	 width="71px" height="71px" viewBox="0 0 71 71" enable-background="new 0 0 71 71" xml:space="preserve">
<g id="croissant">
	<path fill-rule="evenodd" clip-rule="evenodd" fill="#FFFFFF" d="M46.083,62.655c-2.214-1.421-4.747-2.29-6.121-4.062
		c-5.953-7.668-11.599-15.576-17.27-23.461c-0.843-1.173-1.397-2.635-1.78-4.047c-1.938-7.156,3.099-12.321,10.211-10.308
		c2.315,0.656,4.572,1.913,6.546,3.329c6.95,4.993,13.84,10.078,20.605,15.318c4.696,3.637,5.049,8.478,1.112,12.821
		c-2.321,2.561-4.725,5.087-7.368,7.297C50.464,60.845,48.366,61.494,46.083,62.655z"/>
	<path fill-rule="evenodd" clip-rule="evenodd" fill="#FFFFFF" d="M64.937,37.774c-9.409-7.021-18.489-13.796-27.568-20.572
		c4.414-6.287,6.932-7.061,13.884-3.899c4.784,2.176,9.543,4.433,14.177,6.909c6.359,3.398,7.106,6.746,3.098,12.72
		C67.431,34.565,66.186,36.098,64.937,37.774z"/>
	<path fill-rule="evenodd" clip-rule="evenodd" fill="#FFFFFF" d="M37.729,64.717c-0.114,0.142-0.197,0.294-0.321,0.396
		c-10.491,8.664-13.334,8.073-19.318-4.065c-1.527-3.1-3.011-6.221-4.43-9.371c-3.287-7.295-2.918-8.863,3.419-14.688
		C23.919,46.174,30.749,55.344,37.729,64.717z"/>
	<path fill-rule="evenodd" clip-rule="evenodd" fill="#FFFFFF" d="M69.719,16.354c-5.333-2.631-9.817-4.844-14.558-7.183
		c2.032-2.578,3.571-5.217,5.766-7.081c1.524-1.293,4.265-2.49,5.887-1.962c1.704,0.557,3.653,3.125,3.843,4.982
		C71.006,8.545,70.148,12.103,69.719,16.354z"/>
	<path fill-rule="evenodd" clip-rule="evenodd" fill="#FFFFFF" d="M9.1,54.555c2.637,5.356,4.789,9.729,6.943,14.105
		c-7.139,3.306-13.661,3.172-15.316-0.809C-2.525,60.032,6.008,59.513,9.1,54.555z"/>
</g>
</svg>
