<?xml version="1.0" encoding="utf-8"?>
<!-- Generator: Adobe Illustrator 16.0.0, SVG Export Plug-In . SVG Version: 6.00 Build 0)  -->
<!DOCTYPE svg PUBLIC "-//W3C//DTD SVG 1.0//EN" "http://www.w3.org/TR/2001/REC-SVG-20010904/DTD/svg10.dtd">
<svg version="1.0" id="Calque_1" xmlns="http://www.w3.org/2000/svg" xmlns:xlink="http://www.w3.org/1999/xlink" x="0px" y="0px"
	 width="71px" height="71px" viewBox="0 0 71 71" enable-background="new 0 0 71 71" xml:space="preserve">
<g id="ingredient">
	<path fill="#FFFFFF" d="M0,29.133c0.831-1.875,2.269-2.739,4.303-2.485c1.356,0.169,2.32-0.317,3.248-1.313
		c1.951-2.096,4.018-4.081,6.054-6.096c1.366-1.351,2.457-1.349,3.822-0.031c0.797,0.769,1.583,1.549,2.377,2.322
		c0.029,0.027,0.082,0.031,0.285,0.104c1.599-1.605,3.27-3.245,4.883-4.941c0.235-0.247,0.207-0.756,0.279-1.146
		c0.307-1.672,0.57-3.352,0.922-5.013c0.241-1.143,0.978-1.528,2.162-1.325c3.709,0.636,6.067,2.087,8.054,4.992
		c1.481-0.684,2.946-1.338,4.389-2.041c0.305-0.148,0.617-0.429,0.762-0.728c0.801-1.657,1.552-3.339,2.396-5.182
		c-0.25-0.183-0.537-0.338-0.756-0.562c-0.947-0.976-1.289-2.114-0.811-3.426c0.492-1.347,1.484-2.186,2.896-2.211
		c3.832-0.069,7.668-0.064,11.5-0.004c1.416,0.022,2.409,0.846,2.916,2.187c0.491,1.308,0.155,2.445-0.777,3.437
		C58.689,5.9,58.45,6.108,58.178,6.365c2.914,6.535,6.559,12.783,7.061,20.269c2.395-0.106,4.722-0.16,5.762,2.501
		c0,2.773,0,5.547,0,8.32c-0.504,0.645-1.025,1.273-1.506,1.936c-0.372,0.512-0.906,1.023-1.008,1.6
		c-1.303,7.449-2.525,14.912-3.803,22.367c-0.398,2.328-1.516,3.216-3.904,3.217c-16.853,0.005-33.705,0.005-50.558,0
		c-2.395-0.001-3.507-0.883-3.906-3.215c-1.283-7.504-2.524-15.01-3.804-22.51c-0.071-0.414-0.271-0.849-0.535-1.175
		C1.356,38.902,0.664,38.189,0,37.453C0,34.68,0,31.906,0,29.133z M4.723,39.949c0.017,0.386,0.004,0.619,0.042,0.844
		c1.202,7.24,2.434,14.477,3.593,21.723c0.229,1.437,0.869,1.873,2.305,1.868c16.452-0.045,32.905-0.028,49.356-0.028
		c2.289,0,2.289-0.035,2.672-2.35c1.259-7.605,2.524-15.209,3.855-22.802c0.096-0.541,0.754-0.979,1.137-1.476
		c0.375-0.488,1.008-0.973,1.047-1.494c0.131-1.792,0.056-3.602,0.051-5.402c-0.006-1.792-0.188-1.975-2.004-1.976
		c-6.377-0.003-12.756-0.001-19.133-0.001c-14.465,0-28.931-0.001-43.396,0.001c-1.835,0-2.022,0.183-2.029,1.952
		c-0.005,1.571-0.002,3.143,0,4.714c0.001,2.092,0.114,2.207,2.189,2.207c16.267,0.002,32.534-0.002,48.802,0.01
		c0.913,0.001,2.227-0.325,2.189,1.152c-0.033,1.348-1.28,1.051-2.158,1.051c-15.574,0.01-31.149,0.008-46.723,0.008
		C5.969,39.949,5.42,39.949,4.723,39.949z M55.757,26.597c-0.932-3.899-2.321-7.372-5.233-10.034
		c-3.66-3.346-8.613-3.561-12.402-0.607c-0.737,0.574-1.124,1.196-1.16,2.193c-0.046,1.229-0.295,2.473-0.62,3.665
		c-0.633,2.319-0.886,2.43-3.207,1.928c-1.997-0.433-4.398,0.868-5.223,2.855C37.146,26.597,46.37,26.597,55.757,26.597z
		 M63.059,26.564c-0.187-1.127-0.336-2.167-0.529-3.199c-1.086-5.795-4.088-10.831-6.44-16.121c-0.13-0.293-0.698-0.545-1.067-0.551
		c-2.676-0.047-5.353-0.043-8.026-0.004c-0.339,0.005-0.845,0.212-0.979,0.476c-0.732,1.419-1.373,2.887-2.054,4.356
		c9.024,1.095,12.163,7.52,14.147,15.043C59.715,26.564,61.313,26.564,63.059,26.564z M28.231,11.615
		c-1.804,4.742-0.78,8.976,5.801,9.899C36.219,16.345,33.773,12.117,28.231,11.615z M18.611,26.632c1.96,0,3.966,0.018,5.97-0.022
		c0.248-0.005,0.537-0.278,0.726-0.497c1.156-1.33,2.288-2.681,3.301-3.874c-0.942-0.82-2.039-1.776-2.998-2.611
		C23.576,21.663,21.12,24.121,18.611,26.632z M50.889,4.448c1.75,0,3.5-0.009,5.25,0.004c0.832,0.007,1.627-0.237,1.455-1.163
		c-0.078-0.427-0.932-0.998-1.447-1.012c-3.404-0.09-6.813-0.041-10.221-0.051c-0.835-0.002-1.624,0.247-1.458,1.165
		c0.077,0.425,0.921,0.966,1.452,1.009C47.566,4.531,49.23,4.448,50.889,4.448z M18.139,23.49c-0.959-1-1.842-1.918-2.574-2.68
		c-1.895,1.879-3.846,3.814-5.74,5.691C14.071,27.244,15.328,26.788,18.139,23.49z"/>
	<path fill="#FFFFFF" d="M30.908,62.137c-5.91,0-11.82,0-17.73-0.001c-0.369,0-0.81,0.107-1.09-0.055
		c-0.388-0.226-0.945-0.694-0.906-0.991c0.054-0.416,0.533-0.855,0.938-1.119c0.263-0.172,0.718-0.053,1.087-0.053
		c11.913-0.001,23.824-0.001,35.736,0.001c0.369,0,0.81-0.108,1.091,0.054c0.388,0.225,0.944,0.694,0.905,0.99
		c-0.055,0.417-0.532,0.855-0.938,1.121c-0.263,0.171-0.718,0.052-1.087,0.052C42.913,62.137,36.91,62.137,30.908,62.137z"/>
	<path fill="#FFFFFF" d="M60.907,39.945c-0.644,0-1.335,0.146-1.914-0.045c-0.496-0.166-0.863-0.719-1.287-1.101
		c0.403-0.354,0.78-0.975,1.215-1.017c1.366-0.133,2.763-0.145,4.125,0.002c0.46,0.05,0.854,0.71,1.277,1.091
		c-0.449,0.356-0.851,0.884-1.36,1.026C62.324,40.083,61.598,39.947,60.907,39.945z"/>
	<path fill="#FFFFFF" d="M56.71,59.927c0.688,0,1.423-0.144,2.054,0.05c0.445,0.135,0.754,0.727,1.123,1.114
		c-0.365,0.345-0.711,0.956-1.103,0.988c-1.461,0.118-2.944,0.13-4.402-0.006c-0.401-0.037-0.743-0.724-1.112-1.111
		c0.365-0.345,0.687-0.896,1.107-0.987C55.122,59.811,55.93,59.928,56.71,59.927z"/>
	<path fill="#FFFFFF" d="M11.085,44.508c0,0.32,0.124,0.727-0.026,0.944c-0.297,0.433-0.744,0.762-1.129,1.133
		c-0.348-0.36-0.875-0.669-1.002-1.097c-0.175-0.59-0.201-1.321-0.008-1.897c0.179-0.532,0.729-0.94,1.116-1.403
		c0.353,0.453,0.76,0.875,1.033,1.371c0.135,0.246,0.023,0.629,0.023,0.949C11.09,44.508,11.088,44.508,11.085,44.508z"/>
	<path fill="#FFFFFF" d="M16.637,44.4c-0.002,0.322,0.113,0.709-0.026,0.949c-0.266,0.457-0.677,0.828-1.027,1.234
		c-0.386-0.417-0.932-0.775-1.114-1.27c-0.194-0.523-0.183-1.221-0.006-1.758c0.167-0.514,0.663-0.918,1.015-1.371
		c0.387,0.463,0.815,0.899,1.142,1.402C16.744,43.783,16.639,44.126,16.637,44.4z"/>
	<path fill="#FFFFFF" d="M22.187,44.334c0,0.229-0.007,0.459,0.001,0.688c0.03,0.816-0.166,1.555-1.128,1.541
		c-0.964-0.015-1.122-0.769-1.094-1.574c0.016-0.459-0.136-0.979,0.037-1.36c0.243-0.535,0.717-0.965,1.091-1.44
		c0.364,0.486,0.756,0.957,1.076,1.471C22.273,43.82,22.187,44.104,22.187,44.334z"/>
	<path fill="#FFFFFF" d="M27.729,44.434c0,0.319,0.117,0.713-0.025,0.946c-0.274,0.449-0.696,0.81-1.057,1.205
		c-0.375-0.382-0.916-0.704-1.08-1.161c-0.19-0.527-0.19-1.224-0.01-1.759c0.184-0.549,0.684-0.99,1.045-1.479
		c0.377,0.475,0.795,0.922,1.111,1.434c0.123,0.199,0.021,0.538,0.021,0.813C27.731,44.434,27.73,44.434,27.729,44.434z"/>
	<path fill="#FFFFFF" d="M31.07,44.266c0-0.32-0.123-0.727,0.026-0.945c0.296-0.432,0.742-0.762,1.126-1.133
		c0.35,0.359,0.877,0.668,1.004,1.095c0.176,0.591,0.202,1.321,0.009,1.897c-0.179,0.533-0.729,0.942-1.116,1.406
		c-0.352-0.453-0.759-0.875-1.031-1.371c-0.136-0.246-0.024-0.629-0.024-0.949C31.066,44.266,31.068,44.266,31.07,44.266z"/>
	<path fill="#FFFFFF" d="M39.938,44.329c0,0.185-0.006,0.366,0.002,0.55c0.028,0.835-0.063,1.689-1.123,1.68
		c-1.063-0.011-1.123-0.875-1.1-1.703c0.014-0.459-0.136-0.981,0.039-1.358c0.23-0.497,0.711-0.879,1.083-1.31
		c0.366,0.438,0.772,0.851,1.076,1.33C40.039,43.713,39.936,44.055,39.938,44.329z"/>
	<path fill="#FFFFFF" d="M45.482,44.43c0,0.274,0.103,0.613-0.021,0.813c-0.298,0.48-0.701,0.898-1.063,1.343
		c-0.377-0.427-0.896-0.798-1.09-1.296c-0.188-0.477-0.184-1.137-0.007-1.621c0.199-0.548,0.685-0.992,1.046-1.48
		c0.377,0.473,0.797,0.92,1.113,1.43C45.587,43.814,45.482,44.154,45.482,44.43z"/>
	<path fill="#FFFFFF" d="M48.831,44.296c0-0.366-0.133-0.815,0.03-1.08c0.254-0.409,0.717-0.962,1.078-0.954
		c0.365,0.008,0.914,0.571,1.031,0.989c0.178,0.64,0.196,1.403,0.012,2.036c-0.147,0.496-0.707,0.87-1.082,1.299
		c-0.362-0.441-0.78-0.854-1.063-1.341c-0.139-0.241-0.023-0.628-0.023-0.949C48.82,44.296,48.826,44.296,48.831,44.296z"/>
	<path fill="#FFFFFF" d="M56.577,44.38c0,0.274,0.104,0.62-0.021,0.812c-0.33,0.502-0.763,0.935-1.152,1.396
		c-0.348-0.457-0.824-0.868-1.008-1.383c-0.172-0.489-0.033-1.087-0.037-1.638c-0.006-0.799,0.334-1.482,1.158-1.313
		c0.424,0.086,0.752,0.822,1.039,1.313C56.677,43.771,56.577,44.105,56.577,44.38z"/>
	<path fill="#FFFFFF" d="M59.914,44.266c0-0.32-0.123-0.727,0.025-0.945c0.297-0.432,0.742-0.762,1.127-1.133
		c0.35,0.359,0.877,0.668,1.004,1.095c0.176,0.591,0.201,1.321,0.009,1.897c-0.179,0.533-0.729,0.942-1.116,1.406
		c-0.352-0.453-0.759-0.875-1.031-1.371c-0.136-0.246-0.023-0.629-0.023-0.949C59.91,44.266,59.912,44.266,59.914,44.266z"/>
</g>
</svg>
