<?xml version="1.0" encoding="utf-8"?>
<!-- Generator: Adobe Illustrator 16.0.0, SVG Export Plug-In . SVG Version: 6.00 Build 0)  -->
<!DOCTYPE svg PUBLIC "-//W3C//DTD SVG 1.0//EN" "http://www.w3.org/TR/2001/REC-SVG-20010904/DTD/svg10.dtd">
<svg version="1.0" id="Calque_1" xmlns="http://www.w3.org/2000/svg" xmlns:xlink="http://www.w3.org/1999/xlink" x="0px" y="0px"
	 width="71px" height="71px" viewBox="0 0 71 71" enable-background="new 0 0 71 71" xml:space="preserve">
<g>
	<path fill-rule="evenodd" clip-rule="evenodd" fill="#FFFFFF" d="M0.012,34.959c0-8.323-0.035-16.646,0.013-24.969
		C0.056,4.676,4.237,0.143,9.626,0.1C26.902-0.039,44.179,0.057,61.455,0c1.606-0.005,2.162,0.38,2.156,2.085
		c-0.062,17.276-0.088,34.553,0.019,51.83c0.017,2.52-1.386,2.116-2.872,2.115c-16.016-0.005-32.032-0.004-48.047-0.002
		c-1.009,0-2.021-0.044-3.025,0.023c-3.49,0.237-5.88,2.375-5.86,5.191c0.019,2.8,2.447,5.238,5.803,5.313
		c6.554,0.146,13.114,0.059,19.671,0.061c10.467,0.004,20.934-0.024,31.4,0.038c1.11,0.007,3.007-0.94,2.888,1.612
		c-0.105,2.256-1.792,1.335-2.785,1.339c-16.771,0.057-33.544,0.084-50.316,0.019C3.935,69.599,0.024,65.587,0.015,59.172
		C0.003,51.102,0.012,43.029,0.012,34.959z M3.795,55.082c3.364-2.332,6.645-2.091,9.903-2.086
		c14.61,0.016,29.218,0.009,43.828,0.003c1.56,0,3.12,0.508,3.093-2.275c-0.146-15.111-0.095-30.226-0.035-45.338
		c0.008-1.732-0.353-2.382-2.251-2.373C42.339,3.09,26.345,3.022,10.35,3.083C6.136,3.1,3.834,5.44,3.818,9.688
		C3.76,24.545,3.795,39.402,3.795,55.082z"/>
	<path fill-rule="evenodd" clip-rule="evenodd" fill="#FFFFFF" d="M45.275,10.638c4.097-0.038,6.355,2.249,6.2,6.278
		c-0.242,6.31-5.778,11.292-11.881,10.153c-2.819-0.525-4.45,0.537-6.139,2.248c-5.17,5.238-10.714,10.063-16.329,14.809
		c-0.823,0.695-1.613,1.971-2.83,0.844c-1.464-1.356-0.027-2.273,0.826-3.06c5.58-5.143,11.189-10.255,16.831-15.33
		c1.49-1.341,2.097-2.535,1.608-4.807C32.42,16.447,38.704,10.699,45.275,10.638z M40.876,24.23c3.992,0.023,7.67-3.718,7.582-7.653
		c-0.034-1.59-0.63-2.596-2.289-2.893c-2.897-0.517-7.258,1.696-8.517,4.377C36.113,21.336,37.616,24.21,40.876,24.23z"/>
	<path fill-rule="evenodd" clip-rule="evenodd" fill="#FFFFFF" d="M13.622,16.274c0.021-1.764,0.624-4.195,2.732-5.234
		c2.054-1.013,3.508,1.033,4.933,2.365c2.905,2.718,5.85,5.395,8.759,8.109c0.84,0.784,1.777,1.742,0.899,2.901
		c-0.996,1.317-1.863,0.169-2.837-0.385c-3-1.708-4.94-4.532-7.407-6.795c-1.075-0.987-2.765-2.619-3.544-1.69
		c-1.329,1.583-0.292,3.857,1.391,4.848c2.459,1.446,3.955,3.777,6.015,5.562c0.937,0.812,2.084,1.945,0.783,3.149
		c-1.366,1.264-2.191-0.307-3.059-1.089c-2.299-2.075-4.648-4.105-6.822-6.308C14.214,20.437,13.641,18.728,13.622,16.274z"/>
	<path fill-rule="evenodd" clip-rule="evenodd" fill="#FFFFFF" d="M37.811,33.313c-0.403-0.492-0.619-0.786-0.865-1.052
		c-0.794-0.858-1.104-1.85-0.009-2.552c1.057-0.679,1.839,0.226,2.589,0.917c3.302,3.044,6.618,6.069,9.927,9.104
		c0.83,0.762,1.55,1.71,2.502,2.255c1.197,0.684,2.462,1.402,1.359,2.773c-1.109,1.38-2.463,0.592-3.549-0.474
		c-2.397-2.354-4.841-4.64-7.427-6.806c-1.826-1.53-2.859-1.979-4.367,0.065c-2.246,3.044-4.19,1.677-6.042-0.521
		c-0.586-0.696-1.226-1.372-0.495-2.295c0.692-0.872,1.486-0.75,2.284-0.087C35.908,36.464,36.661,34.555,37.811,33.313z"/>
</g>
</svg>
